<svg id="Layer_1" data-name="Layer 1" xmlns="http://www.w3.org/2000/svg" viewBox="0 0 599.24 569.31"><title>Forty_Zwart_Beeldmerk_rgb</title><polygon points="363.64 352.68 184.74 352.68 175.61 338.6 284.28 95.43 302.54 103.59 200.16 332.68 363.64 332.68 363.64 352.68"/><rect x="274.19" y="286.65" width="20" height="180.87"/><path d="M388,304.66a100,100,0,0,1-23.45-197.24l8.06,1.53a119.74,119.74,0,0,1,51.18,98.1V290.9l-7.13,9.58A99.87,99.87,0,0,1,388,304.66ZM364.83,128.05A80,80,0,0,0,388,284.66a80.83,80.83,0,0,0,15.79-1.56V207.05A99.76,99.76,0,0,0,364.83,128.05Z"/><path d="M296.86,482.42A122.38,122.38,0,0,1,174.62,360.17v-151A122.38,122.38,0,0,1,296.86,86.89h5.51A122.39,122.39,0,0,1,424.62,209.14V332.63h-20V209.14A102.37,102.37,0,0,0,302.37,106.89h-5.51A102.36,102.36,0,0,0,194.62,209.14v151A102.36,102.36,0,0,0,296.86,462.42a108.35,108.35,0,0,0,24.47-2.79l4.52,19.48A128,128,0,0,1,296.86,482.42Z"/><path d="M347.5,472l-7.94-18.36a107.75,107.75,0,0,0,65.06-99v-2h20v2A127.73,127.73,0,0,1,347.5,472Z"/></svg>