<svg id="Layer_1" data-name="Layer 1" xmlns="http://www.w3.org/2000/svg" viewBox="0 0 773.81 921.92"><title>Forty_Zwart_Beeld-Woord_rgb</title><path d="M170.05,723.78v-85.3H151.29V622.26h18.76v-13c0-23.27,10.47-37.2,34.46-37.2,5,0,9.36.32,12.16,1.12V590a46.23,46.23,0,0,0-8.69-.8c-13.13,0-16.93,5.56-16.93,21v12.09h23.33v16.22H191.05v85.3Z"/><path d="M333,673c0,28.63-18.71,53.6-55.35,53.6-34.82,0-54-25.4-54-53.48,0-28.92,20.28-53.64,55.06-53.64C314.46,619.46,333,646.38,333,673Zm-88,.12c0,18.77,11.81,36.62,33.34,36.62,22.42,0,33.07-16.77,33.07-36.38s-11.62-37-33.51-37C255.7,636.32,245.05,653.41,245.05,673.1Z"/><path d="M357.41,649.86c0-9.16,0-18.44-.2-27.6h20.36c.36,3.08.76,13.84.76,22.49,6.44-15.25,20.81-25.44,40.8-25.21v19.81c-23.28-.28-40.8,13-40.8,42.81v41.62H357.41Z"/><path d="M432.48,622.26h19.88V590h21v32.28h26.05v16.22H473.36v53.75c0,11.21,2.81,16.21,13.69,16.21a45.09,45.09,0,0,0,9.8-.84v15.18c-4.72,1.6-10.31,1.92-16.38,1.92-21.59,0-28.11-9.6-28.11-29.56V638.48H432.48Z"/><path d="M533.52,622.26c21,49,32.1,76.91,35,85.31h.36c3.45-10,13.45-38.84,32-85.31h21.64l-38.94,95.07c-17.92,43.83-24.32,53.49-51.13,53.49a88.61,88.61,0,0,1-13.59-1.08v-18a95,95,0,0,0,11,.76c13.72,0,18.68-5.52,27.38-24.15l-46.77-106Z"/><polygon points="450.81 416.89 271.91 416.89 262.78 402.81 371.44 159.64 389.7 167.8 287.33 396.89 450.81 396.89 450.81 416.89"/><rect x="361.36" y="350.86" width="20" height="180.87"/><path d="M475.14,368.87a100,100,0,0,1-23.45-197.23l8.07,1.52a119.76,119.76,0,0,1,51.17,98.1v83.85l-7.13,9.58A99.82,99.82,0,0,1,475.14,368.87ZM452,192.26a80,80,0,0,0,38.93,155.05V271.26A99.75,99.75,0,0,0,452,192.26Z"/><path d="M384,546.63A122.38,122.38,0,0,1,261.78,424.39v-151A122.38,122.38,0,0,1,384,151.11h5.51A122.38,122.38,0,0,1,511.78,273.35V396.84h-20V273.35A102.35,102.35,0,0,0,389.54,171.11H384A102.36,102.36,0,0,0,281.78,273.35v151A102.36,102.36,0,0,0,384,526.63a108.33,108.33,0,0,0,24.46-2.79L413,543.33A128.54,128.54,0,0,1,384,546.63Z"/><path d="M434.66,536.2l-7.93-18.36a107.73,107.73,0,0,0,65-99v-2h20v2A127.73,127.73,0,0,1,434.66,536.2Z"/></svg>