<svg id="Layer_1" data-name="Layer 1" xmlns="http://www.w3.org/2000/svg" viewBox="0 0 714.82 453.52"><defs><style>.cls-1{fill:#fff;}</style></defs><title>Forty_Wit_Liggend_rgb</title><path class="cls-1" d="M328.59,278.27V213H314.23V202.54h14.36V191.87c0-17,7.28-27.68,24.74-27.68a33.93,33.93,0,0,1,8.86.86V176a35.47,35.47,0,0,0-7-.71c-10.42,0-13.49,4.57-13.49,17.44v9.81h18V213h-18v65.27Z"/><path class="cls-1" d="M446.56,240.39c0,20.75-13.3,40-40.39,40-25.29,0-39.59-18.94-39.59-39.87,0-21.83,15.19-40.06,40.31-40.06C432.68,200.44,446.56,220.21,446.56,240.39Zm-66.6.11c0,14.69,9.51,29,26.67,29,17.9,0,26.47-13.29,26.47-28.88s-9.58-29.29-26.85-29.29C388.54,211.32,380,224.88,380,240.5Z"/><path class="cls-1" d="M465.56,223.13c0-6.83,0-13.76-.15-20.59h12.66c.23,2.18.53,10.09.53,17.28,5-11.81,16.15-19.46,30.82-19.34v12.61c-17.44-.19-30.82,10.71-30.82,33.1v32.08h-13Z"/><path class="cls-1" d="M519.62,202.54h15.22V177.91h13.07v24.63h20V213h-20v42.63c0,8.95,2.32,12.93,10.68,12.93a34.57,34.57,0,0,0,7.57-.68v9.75c-3.34,1.2-7.1,1.35-11.31,1.35-15.32,0-20-6.87-20-21.79V213H519.62Z"/><path class="cls-1" d="M590.79,202.54c16.44,37.67,25.58,59.3,27.94,65.82H619c2.74-7.47,10.68-29.4,25.66-65.82h13.6L628,275.3c-13.46,32.38-18.48,38.41-36.68,38.41a63.13,63.13,0,0,1-9.65-.79V301.25a68.51,68.51,0,0,0,8.43.64c10.21,0,14.32-4.38,21.58-20.09l-35.25-79.26Z"/><path class="cls-1" d="M246.06,146.31a68.38,68.38,0,0,0-18.7-19.6l-.21,0a69.49,69.49,0,0,0-40-12.58H184A70,70,0,0,0,114.09,184v86.42A70,70,0,0,0,184,340.39a73.22,73.22,0,0,0,16.59-1.89L198,327.35a61.92,61.92,0,0,1-14,1.6c-.51,0-1,0-1.53,0V266.16h39.74V254.72H182.5V228.38H171.06v26.34H128.7l57.73-129.19h.75a58,58,0,0,1,23.22,4.82,57.22,57.22,0,0,0,35.28,107.53v16.81h11.45V184A69.55,69.55,0,0,0,246.06,146.31Zm-75,119.85v61.32a58.59,58.59,0,0,1-45.53-57v-4.29Zm-45.53-32.39V184a58.59,58.59,0,0,1,47.93-57.53Zm119.67-7.42a45.82,45.82,0,0,1-54.81-44.88,45.61,45.61,0,0,1,32.42-43.8A59.16,59.16,0,0,1,237,153.37a57,57,0,0,1,8.22,29.46Z"/><path class="cls-1" d="M245.68,267.3a61.65,61.65,0,0,1-37.22,56.62L213,334.43a73.09,73.09,0,0,0,44.13-67.13v-1.14H245.68Z"/></svg>