<svg id="Layer_1" data-name="Layer 1" xmlns="http://www.w3.org/2000/svg" viewBox="0 0 499.64 520.36"><defs><style>.cls-1{fill:#fff;}</style></defs><title>Forty_Wit_Klein_rgb</title><polygon class="cls-1" points="297.29 328.2 134.95 328.2 125.82 314.12 234.49 70.95 252.74 79.11 150.37 308.2 297.29 308.2 297.29 328.2"/><rect class="cls-1" x="224.4" y="318.2" width="20" height="124.84"/><path class="cls-1" d="M364.45,280.1A100,100,0,0,1,322,91.46l11.22,1.36a122.26,122.26,0,0,1,41.58,91.84v85.45ZM325.2,112.7a80,80,0,0,0,29.62,146.37V184.66A102.26,102.26,0,0,0,325.2,112.7Z"/><rect class="cls-1" x="354.82" y="270.11" width="20" height="38.04"/><path class="cls-1" d="M247.07,457.94A122.25,122.25,0,0,1,124.82,335.7v-151A122.38,122.38,0,0,1,247.07,62.42h5.51a122.11,122.11,0,0,1,80.66,30.4l-13.2,15a102.14,102.14,0,0,0-67.46-25.42h-5.51A102.36,102.36,0,0,0,144.82,184.66v151A102.24,102.24,0,0,0,247.07,437.94a107.85,107.85,0,0,0,24.45-2.79l4.54,19.48A127.68,127.68,0,0,1,247.07,457.94Z"/><path class="cls-1" d="M314.05,439l-10.5-17a107,107,0,0,0,50.62-79.88l19.88,2.19A126.92,126.92,0,0,1,314.05,439Z"/></svg>