<svg id="Layer_1" data-name="Layer 1" xmlns="http://www.w3.org/2000/svg" viewBox="0 0 775.14 350.41"><title>Forty_Zwart_Woordmerk_rgb</title><path d="M170.59,227.52v-85.3H151.82V126h18.77V113c0-23.28,10.47-37.2,34.46-37.2,5,0,9.36.32,12.16,1.12V93.74a46.33,46.33,0,0,0-8.69-.81c-13.13,0-16.93,5.57-16.93,21V126h23.32v16.21H191.59v85.3Z"/><path d="M333.55,176.73c0,28.63-18.71,53.59-55.34,53.59-34.83,0-54-25.39-54-53.47,0-28.92,20.28-53.64,55.07-53.64C315,123.21,333.55,150.13,333.55,176.73Zm-88,.12c0,18.77,11.81,36.62,33.35,36.62,22.41,0,33.06-16.77,33.06-36.38s-11.61-37-33.5-37C256.23,140.06,245.58,157.16,245.58,176.85Z"/><path d="M358,153.61c0-9.16,0-18.44-.2-27.6H378.1c.36,3.08.76,13.84.76,22.49,6.45-15.25,20.81-25.45,40.81-25.21V143.1c-23.28-.28-40.81,13.05-40.81,42.81v41.61H358Z"/><path d="M433,126H452.9V93.73h21V126h26v16.21h-26V196c0,11.21,2.8,16.21,13.68,16.21a45.18,45.18,0,0,0,9.81-.84v15.18c-4.72,1.6-10.31,1.91-16.39,1.91-21.58,0-28.1-9.59-28.1-29.55V142.22H433Z"/><path d="M534.05,126c21,49,32.11,76.91,35,85.31h.36c3.44-10,13.45-38.84,32-85.31h21.64l-38.93,95.06c-17.92,43.84-24.33,53.5-51.14,53.5a88.72,88.72,0,0,1-13.59-1.08V255.44a95.33,95.33,0,0,0,11,.76c13.72,0,18.69-5.53,27.38-24.15L511.06,126Z"/></svg>