<svg id="Layer_1" data-name="Layer 1" xmlns="http://www.w3.org/2000/svg" viewBox="0 0 499.64 520.36"><title>Forty_Zwart_Klein_rgb</title><polygon points="297.31 328.2 134.97 328.2 125.84 314.12 234.51 70.95 252.77 79.11 150.39 308.2 297.31 308.2 297.31 328.2"/><rect x="224.42" y="318.2" width="20" height="124.84"/><path d="M364.48,280.1A100,100,0,0,1,322,91.46l11.22,1.36a122.24,122.24,0,0,1,41.58,91.84v85.45ZM325.22,112.7a80,80,0,0,0,29.62,146.37V184.66A102.23,102.23,0,0,0,325.22,112.7Z"/><rect x="354.84" y="270.11" width="20" height="38.04"/><path d="M247.09,457.94A122.25,122.25,0,0,1,124.84,335.7v-151A122.38,122.38,0,0,1,247.09,62.42h5.51a122.13,122.13,0,0,1,80.67,30.4l-13.21,15A102.12,102.12,0,0,0,252.6,82.42h-5.51A102.36,102.36,0,0,0,144.84,184.66v151A102.26,102.26,0,0,0,247.09,437.94a107.85,107.85,0,0,0,24.45-2.79l4.54,19.48A127.68,127.68,0,0,1,247.09,457.94Z"/><path d="M314.07,439l-10.5-17a107.07,107.07,0,0,0,50.63-79.88l19.88,2.19A127,127,0,0,1,314.07,439Z"/></svg>