<svg id="Layer_1" data-name="Layer 1" xmlns="http://www.w3.org/2000/svg" viewBox="0 0 599.24 570.14"><defs><style>.cls-1{fill:#fff;}</style></defs><title>Forty_Wit_Beeldmerk_rgb</title><polygon class="cls-1" points="363.64 352.89 184.74 352.89 175.61 338.81 284.28 95.63 302.54 103.79 200.16 332.89 363.64 332.89 363.64 352.89"/><rect class="cls-1" x="274.19" y="286.86" width="20" height="180.87"/><path class="cls-1" d="M388,304.86a100,100,0,0,1-23.45-197.23l8.06,1.53a119.73,119.73,0,0,1,51.18,98.09V291.1l-7.13,9.58A99.53,99.53,0,0,1,388,304.86Zm-23.15-176.6a80,80,0,0,0,38.94,155V207.25A99.75,99.75,0,0,0,364.83,128.26Z"/><path class="cls-1" d="M296.86,482.63A122.38,122.38,0,0,1,174.62,360.38v-151A122.38,122.38,0,0,1,296.86,87.1h5.51A122.39,122.39,0,0,1,424.62,209.35V332.84h-20V209.35A102.37,102.37,0,0,0,302.37,107.1h-5.51A102.36,102.36,0,0,0,194.62,209.35v151A102.36,102.36,0,0,0,296.86,462.63a108.35,108.35,0,0,0,24.47-2.79l4.52,19.48A128.57,128.57,0,0,1,296.86,482.63Z"/><path class="cls-1" d="M347.5,472.2l-7.94-18.36a107.76,107.76,0,0,0,65.06-99v-2h20v2A127.74,127.74,0,0,1,347.5,472.2Z"/></svg>