<svg id="Layer_1" data-name="Layer 1" xmlns="http://www.w3.org/2000/svg" viewBox="0 0 775.14 350.41"><defs><style>.cls-1{fill:#fff;}</style></defs><title>Forty_Wit_Woordmerk_rgb</title><path class="cls-1" d="M170.72,227.53v-85.3H152V126h18.77V113c0-23.27,10.47-37.2,34.46-37.2,5,0,9.35.32,12.15,1.12V93.74a46.15,46.15,0,0,0-8.69-.8c-13.12,0-16.93,5.56-16.93,21V126H215v16.22H191.71v85.3Z"/><path class="cls-1" d="M333.68,176.73c0,28.63-18.71,53.6-55.34,53.6-34.83,0-54-25.4-54-53.48,0-28.92,20.28-53.64,55.07-53.64C315.12,123.21,333.68,150.13,333.68,176.73Zm-88,.12c0,18.77,11.81,36.62,33.34,36.62,22.42,0,33.07-16.77,33.07-36.38s-11.61-37-33.51-37C256.36,140.07,245.71,157.16,245.71,176.85Z"/><path class="cls-1" d="M358.07,153.61c0-9.16,0-18.44-.2-27.6h20.36c.36,3.08.76,13.84.76,22.49,6.44-15.25,20.81-25.45,40.8-25.21V143.1c-23.28-.28-40.8,13.05-40.8,42.81v41.62H358.07Z"/><path class="cls-1" d="M433.14,126H453V93.73h21V126h26.05v16.22H474V196c0,11.21,2.81,16.21,13.69,16.21a45.09,45.09,0,0,0,9.8-.84v15.18c-4.71,1.6-10.31,1.92-16.38,1.92-21.59,0-28.1-9.6-28.1-29.56V142.23H433.14Z"/><path class="cls-1" d="M534.18,126c21,49,32.1,76.91,35,85.31h.36c3.44-10,13.44-38.84,32-85.31h21.64l-38.94,95.06c-17.92,43.84-24.32,53.5-51.13,53.5a88.61,88.61,0,0,1-13.59-1.08V255.44a95.19,95.19,0,0,0,11,.76c13.72,0,18.69-5.53,27.38-24.15L511.19,126Z"/></svg>